HIERARCHY
ROOT joint_Root
{
	OFFSET 0.0 0.0 0.0
	CHANNELS 6 Xposition Yposition Zposition Zrotation Xrotation Yrotation 
	JOINT Hips
	{
		OFFSET -17.1583 93.1646 452.98
		CHANNELS 6 Xposition Yposition Zposition Zrotation Xrotation Yrotation 
		JOINT Spine
		{
			OFFSET 15.7357 0.0 0.0
			CHANNELS 6 Xposition Yposition Zposition Zrotation Xrotation Yrotation 
			JOINT Chest
			{
				OFFSET 8.98455 -0.406207 0.0
				CHANNELS 6 Xposition Yposition Zposition Zrotation Xrotation Yrotation 
				JOINT Neck
				{
					OFFSET 16.3773 0.0 0.0
					CHANNELS 6 Xposition Yposition Zposition Zrotation Xrotation Yrotation 
					JOINT Head
					{
						OFFSET 6.45672 0.0 0.0
						CHANNELS 6 Xposition Yposition Zposition Zrotation Xrotation Yrotation 
						End Site
						{
							OFFSET 0.0 0.0 0.0
						}
					}
				}
				JOINT Shoulder_L
				{
					OFFSET 12.9942 -0.242716 4.98039
					CHANNELS 6 Xposition Yposition Zposition Zrotation Xrotation Yrotation 
					JOINT UpperArm_L
					{
						OFFSET 5.34809 0.0 0.0
						CHANNELS 6 Xposition Yposition Zposition Zrotation Xrotation Yrotation 
						JOINT LowerArm_L
						{
							OFFSET 24.3286 1.87007e-05 0.0
							CHANNELS 6 Xposition Yposition Zposition Zrotation Xrotation Yrotation 
							JOINT Hand_L
							{
								OFFSET 22.2916 0.0 0.0
								CHANNELS 6 Xposition Yposition Zposition Zrotation Xrotation Yrotation 
								End Site
								{
									OFFSET 0.0 0.0 0.0
								}
							}
						}
					}
				}
				JOINT Shoulder_R
				{
					OFFSET 12.9945 -0.242716 -4.98039
					CHANNELS 6 Xposition Yposition Zposition Zrotation Xrotation Yrotation 
					JOINT UpperArm_R
					{
						OFFSET -5.34813 0.0 0.0
						CHANNELS 6 Xposition Yposition Zposition Zrotation Xrotation Yrotation 
						JOINT LowerArm_R
						{
							OFFSET -24.3289 0.000322201 0.0
							CHANNELS 6 Xposition Yposition Zposition Zrotation Xrotation Yrotation 
							JOINT Hand_R
							{
								OFFSET -22.2915 -0.000108084 0.0
								CHANNELS 6 Xposition Yposition Zposition Zrotation Xrotation Yrotation 
								End Site
								{
									OFFSET 0.0 0.0 0.0
								}
							}
						}
					}
				}
			}
		}
		JOINT UpperLeg_L
		{
			OFFSET -2.19248 -6.46944 0.0
			CHANNELS 6 Xposition Yposition Zposition Zrotation Xrotation Yrotation 
			JOINT LowerLeg_L
			{
				OFFSET 39.0811 0.0 -1.23785e-05
				CHANNELS 6 Xposition Yposition Zposition Zrotation Xrotation Yrotation 
				JOINT Foot_L
				{
					OFFSET 40.9854 0.0 -1.26872e-05
					CHANNELS 6 Xposition Yposition Zposition Zrotation Xrotation Yrotation 
					JOINT Toes_L
					{
						OFFSET 11.7543 0.0 0.0
						CHANNELS 6 Xposition Yposition Zposition Zrotation Xrotation Yrotation 
						End Site
						{
							OFFSET 0.0 0.0 0.0
						}
					}
				}
			}
		}
		JOINT UpperLeg_R
		{
			OFFSET -2.19251 6.46944 0.0
			CHANNELS 6 Xposition Yposition Zposition Zrotation Xrotation Yrotation 
			JOINT LowerLeg_R
			{
				OFFSET -39.0811 -0.00228153 -0.0401928
				CHANNELS 6 Xposition Yposition Zposition Zrotation Xrotation Yrotation 
				JOINT Foot_R
				{
					OFFSET -40.9854 0.0 0.0
					CHANNELS 6 Xposition Yposition Zposition Zrotation Xrotation Yrotation 
					JOINT Toes_R
					{
						OFFSET -11.7543 0.0 0.0
						CHANNELS 6 Xposition Yposition Zposition Zrotation Xrotation Yrotation 
						End Site
						{
							OFFSET 0.0 0.0 0.0
						}
					}
				}
			}
		}
	}
}
MOTION
Frames:	4
Frame Time:	0.0333333
0.000000 0.000000 0.000000 0.000000 0.000000 -0.000000 1.528570 93.058800 -1.584720 88.530000 -0.286619 3.777010 15.735700 0.000005 -0.000001 107.030000 86.324300 -107.096000 8.984550 -0.406207 -0.000000 -0.735656 2.157410 -0.117838 16.377300 -0.000001 -0.000001 1.500540 3.200780 -0.361929 6.456720 -0.000001 -0.000000 2.404520 3.287850 4.625380 12.994200 -0.242716 4.980390 -92.381500 7.408680 -72.123900 5.348090 -0.000007 -0.000001 -69.229900 13.287800 -9.429300 24.328600 0.000019 0.000005 3.570200 27.248200 -7.759370 22.291600 -0.000001 0.000005 -3.187530 4.945960 8.448140 12.994500 -0.242716 -4.980390 88.880300 4.366800 -75.603300 -5.348130 -0.000001 -0.000004 -73.492400 26.204000 -3.760200 -24.328900 0.000322 -0.000009 -0.013254 -0.053807 -12.787400 -22.291500 -0.000108 -0.000004 2.942880 5.258970 1.194720 -2.192480 -6.469440 -0.000000 -175.371000 -5.507210 -0.477420 39.081100 -0.000007 -0.000012 0.038731 -0.119679 17.933000 40.985400 -0.000006 -0.000013 0.550420 11.206100 -68.339800 11.754300 -0.000000 0.000003 -0.001060 0.183882 -9.117560 -2.192510 6.469440 -0.000001 175.019000 6.556970 -178.166000 -39.081100 -0.002282 -0.040193 0.018527 -0.064003 13.354700 -40.985400 0.000008 0.000006 -6.885840 7.762840 -66.681800 -11.754300 -0.000006 -0.000006 -0.011003 0.278654 -5.250300
0.000000 0.000000 0.000000 0.000000 0.000000 -0.000000 1.490930 93.056300 -1.437610 88.516900 -0.326921 3.599660 15.735700 0.000005 -0.000001 106.405000 86.388500 -106.300000 8.984550 -0.406207 -0.000000 -0.838954 2.031600 0.225801 16.377300 -0.000001 -0.000001 1.038370 3.424750 0.195985 6.456720 -0.000001 -0.000000 2.066730 3.932570 5.088970 12.994200 -0.242716 4.980390 -92.424500 7.518890 -72.070100 5.348090 -0.000007 -0.000001 -68.880200 9.539600 -10.294300 24.328600 0.000019 0.000005 2.383610 26.565200 -5.317340 22.291600 -0.000001 0.000005 -4.131140 4.963100 8.092170 12.994500 -0.242716 -4.980390 88.920100 4.216050 -75.618900 -5.348130 -0.000001 -0.000004 -73.263700 25.391300 -4.092670 -24.328900 0.000322 -0.000009 -0.092840 -0.419607 -12.342500 -22.291500 -0.000108 -0.000004 3.111650 5.262320 1.105080 -2.192480 -6.469440 -0.000000 -175.312000 -5.705740 -0.504820 39.081100 -0.000007 -0.000012 0.038193 -0.118490 17.865900 40.985400 -0.000006 -0.000013 0.553367 11.376100 -68.478000 11.754300 -0.000000 0.000003 -0.001335 0.187692 -8.962710 -2.192510 6.469440 -0.000001 175.096000 6.467190 -178.214000 -39.081100 -0.002282 -0.040193 0.018875 -0.065917 13.267100 -40.985400 0.000008 0.000006 -6.772820 7.669540 -66.741500 -11.754300 -0.000006 -0.000006 -0.010698 0.276449 -5.340550
0.000000 0.000000 0.000000 0.000000 0.000000 -0.000000 1.454580 93.057100 -1.246200 88.516100 -0.314333 3.439820 15.735700 0.000005 -0.000001 105.807000 86.461200 -105.530000 8.984550 -0.406207 -0.000000 -0.960569 1.906440 0.570779 16.377300 -0.000001 -0.000001 0.578496 3.599450 0.950696 6.456720 -0.000001 -0.000000 1.704750 4.600500 5.789730 12.994200 -0.242716 4.980390 -92.458000 7.586870 -71.989600 5.348090 -0.000007 -0.000001 -68.082400 5.025660 -11.321500 24.328600 0.000019 0.000005 1.362410 26.541200 -3.046810 22.291600 -0.000001 0.000005 -6.611200 5.013350 7.026070 12.994500 -0.242716 -4.980390 88.921700 4.172790 -75.497100 -5.348130 -0.000001 -0.000004 -72.894400 24.532800 -4.481020 -24.328900 0.000322 -0.000009 -0.132730 -0.644973 -11.541200 -22.291500 -0.000108 -0.000004 3.260740 5.265800 1.011390 -2.192480 -6.469440 -0.000000 -175.266000 -5.833570 -0.442692 39.081100 -0.000007 -0.000012 0.037140 -0.116316 17.708500 40.985400 -0.000006 -0.000013 0.541986 11.506800 -68.584200 11.754300 -0.000000 0.000003 -0.001235 0.186320 -9.018510 -2.192510 6.469440 -0.000001 175.122000 6.475940 -178.157000 -39.081100 -0.002282 -0.040193 0.017822 -0.062211 13.109800 -40.985400 0.000008 0.000006 -6.800320 7.661400 -66.798100 -11.754300 -0.000006 -0.000006 -0.011107 0.279399 -5.219790
0.000000 0.000000 0.000000 0.000000 0.000000 -0.000000 1.379420 93.045800 -1.035120 88.512900 -0.453700 3.278500 15.735700 0.000005 -0.000001 105.620000 86.545600 -105.159000 8.984550 -0.406207 -0.000000 -1.119500 1.824110 0.939350 16.377300 -0.000001 -0.000001 0.007201 3.703300 1.875480 6.456720 -0.000001 -0.000000 1.497820 5.342930 6.764740 12.994200 -0.242716 4.980390 -92.459100 7.512780 -71.816800 5.348090 -0.000007 -0.000001 -67.055000 -1.336080 -12.625000 24.328600 0.000019 0.000005 0.277963 27.243400 -0.607238 22.291600 -0.000001 0.000005 -9.952470 5.063410 5.933970 12.994500 -0.242716 -4.980390 88.885300 4.282960 -75.397200 -5.348130 -0.000001 -0.000004 -72.313500 23.622200 -4.901880 -24.328900 0.000322 -0.000009 -0.156291 -0.845729 -10.401000 -22.291500 -0.000108 -0.000004 3.309420 5.263530 1.072470 -2.192480 -6.469440 -0.000000 -175.164000 -6.191340 -0.370836 39.081100 -0.000007 -0.000012 0.034369 -0.108360 17.598000 40.985400 -0.000006 -0.000013 0.524635 11.726900 -68.681200 11.754300 -0.000000 0.000003 -0.001220 0.186108 -9.027110 -2.192510 6.469440 -0.000001 175.217000 6.391760 -178.181000 -39.081100 -0.002282 -0.040193 0.019217 -0.068307 13.090300 -40.985400 0.000008 0.000006 -6.511890 7.649290 -66.954600 -11.754300 -0.000006 -0.000006 -0.010930 0.278126 -5.271900
